<?xml version="1.0" standalone="no"?><!DOCTYPE svg PUBLIC "-//W3C//DTD SVG 1.1//EN" "http://www.w3.org/Graphics/SVG/1.1/DTD/svg11.dtd"><svg t="1740559357454" class="icon" viewBox="0 0 1024 1024" version="1.1" xmlns="http://www.w3.org/2000/svg" p-id="10172" xmlns:xlink="http://www.w3.org/1999/xlink" width="200" height="200"><path d="M509.71 257.53c-137.98 1.23-249.48 113.46-249.48 251.75 0 44.76 11.69 86.81 32.16 123.22 41.8 74.32 120.23 125.29 210.8 128.39 1.01 0.04 2.01 0.06 3.02 0.07 0.66 0.01 1.32 0.02 1.96 0.04 1.27 0.02 2.55 0.04 3.82 0.04 53 0 96.35-43.35 96.35-96.35 0-24.63-9.36-47.18-24.7-64.25-1.17-1.29-2.36-2.56-3.59-3.79-17.47-17.47-41.56-28.31-68.06-28.31-85.82 0-155.41-69.57-155.41-155.41 0.01-85.07 68.37-154.17 153.13-155.4z" fill="#4770DC" p-id="10173"></path><path d="M415.65 161.16c-139.04 0-251.76 112.72-251.76 251.76 0 1.27 0.01 2.55 0.04 3.82 0.01 0.65 0.02 1.31 0.04 1.96 0.01 1.01 0.04 2.01 0.07 3.02 4.59 185.26 153.91 334.58 339.17 339.17-90.57-3.11-169-54.07-210.8-128.39-20.48-36.42-32.16-78.46-32.16-123.22 0-138.29 111.5-250.52 249.48-251.75 0.77-0.01 1.53-0.01 2.29-0.01 1.34 0 2.67 0.01 4.02 0.05 82.64 2.1 149.26 68.72 151.34 151.34-0.66-43.27-12.25-83.88-32.13-119.22-43.15-76.71-125.33-128.53-219.6-128.53z" fill="#6F94F4" p-id="10174"></path><path d="M512 64.8c-192.26 0-348.12 155.86-348.12 348.12 0-139.05 112.73-251.76 251.76-251.76 94.28 0 176.46 51.82 219.59 128.53 19.88 35.33 31.47 75.95 32.13 119.22 0.04 1.34 0.05 2.67 0.05 4.02v449.92c0 53 43.37 96.35 96.35 96.35 53 0 96.35-43.35 96.35-96.35V412.92c0-136.41-78.45-254.49-192.71-311.59C620.64 77.96 567.85 64.8 512 64.8z" fill="#97B4FF" p-id="10175"></path></svg>